<svg xmlns="http://www.w3.org/2000/svg" viewBox="0 0 600 200"
     color="#9bcdee" fill="currentColor"
     role="img" aria-label="Xenios Blockchain Group">
  <defs>
    <!-- Gooey / metaball filter so nearby circles merge into smooth blobs. -->
    <filter id="xnGoo" x="-20%" y="-20%" width="140%" height="140%">
      <feGaussianBlur in="SourceGraphic" stdDeviation="5" result="blur"/>
      <feColorMatrix in="blur" mode="matrix"
        values="1 0 0 0 0  0 1 0 0 0  0 0 1 0 0  0 0 0 20 -8" result="goo"/>
      <feBlend in="SourceGraphic" in2="goo"/>
    </filter>
  </defs>

  <!-- Mark (left), vertically centered -->
  <g transform="translate(0,18)">
    <g transform="translate(22,4) scale(0.78)">
      <g filter="url(#xnGoo)">
        <circle cx="34"  cy="34"  r="20"/>
        <circle cx="57"  cy="57"  r="16"/>
        <circle cx="80"  cy="80"  r="11"/>
        <circle cx="166" cy="34"  r="20"/>
        <circle cx="143" cy="57"  r="16"/>
        <circle cx="120" cy="80"  r="11"/>
        <circle cx="34"  cy="166" r="20"/>
        <circle cx="57"  cy="143" r="16"/>
        <circle cx="80"  cy="120" r="11"/>
        <circle cx="166" cy="166" r="20"/>
        <circle cx="143" cy="143" r="16"/>
        <circle cx="120" cy="120" r="11"/>
        <circle cx="100" cy="26"  r="14"/>
        <circle cx="100" cy="174" r="14"/>
        <circle cx="26"  cy="100" r="14"/>
        <circle cx="174" cy="100" r="14"/>
      </g>
    </g>
  </g>

  <!-- Wordmark: XENI · O (ring + dot) · S -->
  <g font-family="Quicksand, 'Segoe UI', sans-serif" font-weight="300"
     font-size="96" text-anchor="middle">
    <text x="250" y="112">X</text>
    <text x="308" y="112">E</text>
    <text x="372" y="112">N</text>
    <text x="420" y="112">I</text>
  </g>
  <!-- "S" pulled out of the group so it can sit on the O's optical centre -->
  <text x="536" y="121" text-anchor="middle"
        font-family="Quicksand, 'Segoe UI', sans-serif" font-weight="300"
        font-size="104">S</text>
  <!-- Custom "O": thin ring with a small filled circle inside -->
  <circle cx="468" cy="82" r="36" fill="none" stroke="currentColor" stroke-width="8.5"/>
  <circle cx="468" cy="82" r="11"/>

  <!-- Sub-wordmark -->
  <text x="386" y="162" text-anchor="middle"
        font-family="Quicksand, 'Segoe UI', sans-serif"
        font-size="26" font-weight="500" letter-spacing="9"
        fill="currentColor" opacity="0.9">BLOCKCHAIN GROUP</text>
</svg>
