<svg xmlns="http://www.w3.org/2000/svg" viewBox="0 0 200 244"
     color="#9bcdee" fill="currentColor"
     role="img" aria-label="Xenios Blockchain Group">
  <defs>
    <!-- Gooey / metaball filter so nearby circles merge into smooth blobs. -->
    <filter id="xnGoo" x="-20%" y="-20%" width="140%" height="140%">
      <feGaussianBlur in="SourceGraphic" stdDeviation="5" result="blur"/>
      <feColorMatrix in="blur" mode="matrix"
        values="1 0 0 0 0  0 1 0 0 0  0 0 1 0 0  0 0 0 20 -8" result="goo"/>
      <feBlend in="SourceGraphic" in2="goo"/>
    </filter>
  </defs>

  <!-- Mark -->
  <g transform="translate(22,4) scale(0.78)">
    <g filter="url(#xnGoo)">
      <circle cx="34"  cy="34"  r="20"/>
      <circle cx="57"  cy="57"  r="16"/>
      <circle cx="80"  cy="80"  r="11"/>
      <circle cx="166" cy="34"  r="20"/>
      <circle cx="143" cy="57"  r="16"/>
      <circle cx="120" cy="80"  r="11"/>
      <circle cx="34"  cy="166" r="20"/>
      <circle cx="57"  cy="143" r="16"/>
      <circle cx="80"  cy="120" r="11"/>
      <circle cx="166" cy="166" r="20"/>
      <circle cx="143" cy="143" r="16"/>
      <circle cx="120" cy="120" r="11"/>
      <circle cx="100" cy="26"  r="14"/>
      <circle cx="100" cy="174" r="14"/>
      <circle cx="26"  cy="100" r="14"/>
      <circle cx="174" cy="100" r="14"/>
    </g>
  </g>

  <!-- Wordmark: XENI · O (ring + dot) · S -->
  <g font-family="Quicksand, 'Segoe UI', sans-serif" font-weight="300"
     font-size="24" text-anchor="middle">
    <text x="30"  y="205">X</text>
    <text x="59"  y="205">E</text>
    <text x="88"  y="205">N</text>
    <text x="111" y="205">I</text>
    <text x="169" y="205">S</text>
  </g>
  <!-- Custom "O": thin ring with a small filled circle inside -->
  <circle cx="139" cy="197" r="8.5" fill="none" stroke="currentColor" stroke-width="2.2"/>
  <circle cx="139" cy="197" r="2.6"/>

  <!-- Sub-wordmark -->
  <text x="100" y="230" text-anchor="middle"
        font-family="Quicksand, 'Segoe UI', sans-serif"
        font-size="8.5" font-weight="500" letter-spacing="3"
        fill="currentColor" opacity="0.9">BLOCKCHAIN GROUP</text>
</svg>
